{
    "asset" : {
        "generator" : "Khronos glTF Blender I/O v1.8.19",
        "version" : "2.0"
    },
    "scene" : 0,
    "scenes" : [
        {
            "name" : "Scene",
            "nodes" : [
                0
            ]
        }
    ],
    "nodes" : [
        {
            "mesh" : 0,
            "name" : "Sphere"
        }
    ],
    "meshes" : [
        {
            "name" : "Sphere",
            "primitives" : [
                {
                    "attributes" : {
                        "POSITION" : 0,
                        "NORMAL" : 1,
                        "TEXCOORD_0" : 2
                    },
                    "indices" : 3
                }
            ]
        }
    ],
    "accessors" : [
        {
            "bufferView" : 0,
            "componentType" : 5126,
            "count" : 16639,
            "max" : [
                0.9999995827674866,
                1,
                0.9999992251396179
            ],
            "min" : [
                -0.9999986886978149,
                -1,
                -1
            ],
            "type" : "VEC3"
        },
        {
            "bufferView" : 1,
            "componentType" : 5126,
            "count" : 16639,
            "type" : "VEC3"
        },
        {
            "bufferView" : 2,
            "componentType" : 5126,
            "count" : 16639,
            "type" : "VEC2"
        },
        {
            "bufferView" : 3,
            "componentType" : 5123,
            "count" : 97536,
            "type" : "SCALAR"
        }
    ],
    "bufferViews" : [
        {
            "buffer" : 0,
            "byteLength" : 199668,
            "byteOffset" : 0
        },
        {
            "buffer" : 0,
            "byteLength" : 199668,
            "byteOffset" : 199668
        },
        {
            "buffer" : 0,
            "byteLength" : 133112,
            "byteOffset" : 399336
        },
        {
            "buffer" : 0,
            "byteLength" : 195072,
            "byteOffset" : 532448
        }
    ],
    "buffers" : [
        {
            "byteLength" : 727520,
            "uri" : "data:application/octet-stream;base64,"
        }
    ]
}
